# xmcd
#
# Track frame offsets: 
#        183
#        20293
#        45180
#        68508
#        94548
#        119148
#        138125
#        157178
#        182053
#
# Disc length: 2705 seconds
#
# Revision: 0
# Processed by: cddbd v1.5.1PL0 Copyright (c) Steve Scherf et al.
# Submitted via: ExactAudioCopy v0.95b2
#
DISCID=6c0a8f09
DTITLE=Roy Richards - Live !
DYEAR=1992
DGENRE=Funk
TTITLE0=Shine
TTITLE1=Follow your heart
TTITLE2=Say that you mean it
TTITLE3=Talk to me
TTITLE4=I'm gonna show you
TTITLE5=Get funky
TTITLE6=Wake up
TTITLE7=Sunshine on my head
TTITLE8=I can hardly wait
EXTD=
EXTT0=
EXTT1=
EXTT2=
EXTT3=
EXTT4=
EXTT5=
EXTT6=
EXTT7=
EXTT8=
PLAYORDER=
